<svg version="1.1" xmlns="http://www.w3.org/2000/svg" xmlns:xlink="http://www.w3.org/1999/xlink" width="299" height="325"><g transform="translate(-89,-46)"><g data-paper-data="{&quot;isPaintingLayer&quot;:true}" fill="none" fill-rule="nonzero" stroke="none" stroke-width="none" stroke-linecap="none" stroke-linejoin="miter" stroke-miterlimit="10" stroke-dasharray="" stroke-dashoffset="0" font-family="none" font-weight="none" font-size="none" text-anchor="none" style="mix-blend-mode: normal"><path d="M89,341v-295h299v295z" data-paper-data="{&quot;origPos&quot;:null}" fill="#ff0000" stroke="none" stroke-width="0" stroke-linecap="butt"/><path d="M327,95l-109,59l-98,-68l7,5" fill="none" stroke="#000000" stroke-width="5" stroke-linecap="round"/><path d="M276,155c0,-5.52285 4.47715,-10 10,-10c5.52285,0 10,4.47715 10,10c0,5.52285 -4.47715,10 -10,10c-5.52285,0 -10,-4.47715 -10,-10z" fill="#000000" stroke="none" stroke-width="0.5" stroke-linecap="butt"/><path d="M144,157c0,-5.52285 4.47715,-10 10,-10c5.52285,0 10,4.47715 10,10c0,5.52285 -4.47715,10 -10,10c-5.52285,0 -10,-4.47715 -10,-10z" fill="#000000" stroke="none" stroke-width="0.5" stroke-linecap="butt"/><path d="M134,305.5c-1.25559,-1.67412 -0.24645,-2.83519 0.11574,-3.16911c-0.61856,-0.24683 -2.01814,-1.02904 -1.5411,-2.93723c0.60634,-2.42536 3.0317,-1.81902 3.0317,-1.81902c1.35747,0.33937 2.70777,0.83315 4.05682,1.36404c0.90138,-0.69675 1.56757,-1.71821 2.54627,-2.31039c0.45093,-0.27284 0.97297,-0.49537 1.5,-0.5c0.17621,-0.00155 0.07542,0.59819 0.21044,0.48496l1.77022,-2.65533c-0.12248,-0.29502 -0.1901,-0.61858 -0.1901,-0.95792v-3c0,0 0.96987,-1.14977 2.08504,-1.76025l0.17889,-0.35778l0.16193,0.08096c0.66956,-1.04158 1.36475,-2.14309 1.57414,-2.96293c0.42273,-1.65515 -0.14563,-3.45958 0.26393,-5.11803c0.74649,-3.02276 3.39931,-5.27738 4.36436,-8.17254c2.37371,-7.12112 0.44544,-14.32148 1.57385,-21.69423c0.32312,-2.11118 2.38709,-4.01395 2.79786,-6.0152c0.97019,-4.72671 0,-10.62685 0,-15.5c0,-8.89937 1.02016,-17.1305 5.02786,-25.1459c1.49562,-2.99123 2.84149,-6.39848 5.46208,-8.64097c0.39719,-0.33988 2.13348,-0.8356 2.67204,-1.14241c3.83843,-2.18673 7.37591,-4.16402 11.45963,-5.91418c6.48006,-2.77717 12.98233,-5.49797 19.48764,-8.21545c3.19882,-1.33625 6.51321,-3.12064 9.86068,-4.02581c2.7664,-0.74804 6.33317,-0.06908 8.95636,-0.98653c1.80258,-0.63044 3.2122,-2.10168 4.96736,-2.8541c2.01632,-0.86439 4.44919,-1.07464 6.60634,-1.07464c1.61377,0 3.63246,0.34464 5.20943,0.12829c1.30162,-0.17857 2.47677,-0.93636 3.77649,-1.12825c3.69383,-0.54537 7.794,-0.03049 11.53435,-0.16839c10.02737,-0.36968 20.04435,-0.83297 30.07913,-0.82374c6.20826,0.00571 13.6331,-1.11366 19.33348,1.90654c1.93974,1.02772 4.04248,5.18868 5.15311,6.93257c4.93597,7.75032 8.28282,16.85181 11.40913,25.44913c0.33496,1.06795 0.81068,2.10157 1.00487,3.20384c0.21038,1.19413 -0.68265,2.42954 -0.41987,3.61325c0.35186,1.58501 1.88082,2.69673 2.41495,4.22995c0.80216,2.30259 0.10785,5.43189 0.45848,7.83333c1.5415,10.55754 4.85262,21.24045 7.4401,31.59035c1.04222,4.16889 2.52985,8.47351 3.10634,12.73312c0.26982,1.99366 -0.03543,3.56983 0.39686,5.58717c1.52759,7.12877 3.52056,14.45304 3.28512,21.81664c-0.19942,6.23705 -3.62969,8.7053 -9.305,9.65118c-3.60818,0.55811 -7.50059,-0.29114 -10.9853,0.28058c-1.27138,0.20859 -2.37963,1.01201 -3.62592,1.33861c-3.21903,0.84356 -6.88032,1.46024 -10.18583,1.82462c-8.65873,0.95449 -17.86891,1.0012 -26.57994,1.0012c-6.33333,0 -12.66667,0 -19,0c-2.45663,0 -5.46638,-0.43144 -7.89366,-0.07464c-1.55991,0.2293 -3.03955,0.89832 -4.60634,1.07464c-5.66824,0.63788 -11.79078,0 -17.5,0c-17.33333,0 -34.66667,0 -52,0c-8.30795,-0.00046 -16.25705,-1.42529 -24.5,-2c-2.17809,-0.15186 -2.3989,0.24493 -4.80568,-0.13338c-2.28874,-0.35976 -4.54438,-1.28424 -6.79986,-2.19238c-0.36842,0.21133 -0.61653,0.41703 -0.62669,0.59353l-1,1c0,0 -2.26777,1.73223 -3.76777,-0.26777zM150.5,295.26748v2.73252h-1.32546c-0.29619,0.52564 -0.62742,1.01891 -1.09442,1.38675c-0.94963,0.74801 -2.16791,1.04634 -3.29687,1.50559c1.00327,0.32376 2.00995,0.58664 3.02243,0.74104c1.84434,0.28126 4.07545,-0.03565 5.9851,0.19601c7.28612,0.88387 14.36332,1.67102 21.70922,1.67061c17.33333,0 34.66667,0 52,0c5.71618,0 11.82249,0.62023 17.5,0c1.90696,-0.20832 3.5014,-0.95863 5.5,-1c8.65863,-0.17922 17.33942,0 26,0c8.64609,0 17.78639,-0.04988 26.3801,-0.9972c4.20287,-0.4633 8.17859,-2.1412 12.22821,-2.83837c3.9484,-0.67974 7.99115,0.18422 11.94667,-0.54141c1.32953,-0.22159 4.89442,-0.96187 5.76501,-2.32701c0.20246,-0.31747 -0.87116,-0.2545 -0.94131,-0.62443c-0.15527,-0.81874 0.32692,-1.64197 0.35355,-2.47487c0.06694,-2.09359 -0.40193,-4.37166 -0.56582,-6.46924c-0.41642,-5.32973 -2.53063,-10.40765 -3.11092,-15.70363c-0.16426,-1.49908 0.15246,-3.03017 -0.05549,-4.52382c-0.53095,-3.81369 -2.02006,-7.77248 -2.95705,-11.52044c-2.59441,-10.37765 -5.91519,-21.09049 -7.46088,-31.67673c-0.37508,-2.56888 0.3143,-6.18789 -0.57715,-8.64602c-0.27001,-0.74456 -1.38318,-1.0042 -1.58505,-1.77005c-0.74178,-2.81417 0.09574,-5.29146 -1.12372,-7.88188c-2.76592,-7.60628 -5.72203,-15.4776 -9.79271,-22.49439c-1.22343,-2.10888 -2.54065,-4.11788 -3.99956,-6.07523c-0.60658,-0.81382 -1.0043,-1.94878 -1.93677,-2.34971c-0.32966,-0.14174 -0.65022,0.3875 -1.00886,0.37562c-1.49434,-0.04952 -2.96837,-0.45861 -4.46346,-0.44404c-3.33245,0.03246 -6.66737,-0.00614 -10,-0.0092c-9.97175,-0.00918 -19.92585,0.45299 -29.89032,0.82035c-3.80552,0.1403 -7.92573,-0.34727 -11.69041,0.1717c-0.78864,0.10872 -1.43581,0.7564 -2.22351,0.87175c-2.19014,0.32071 -4.57799,0.12829 -6.79057,0.12829c-1.77781,0 -3.72486,0.20046 -5.39366,0.92536c-1.30655,0.56754 -2.26294,1.82058 -3.60756,2.29085c-3.47048,1.21378 -7.35755,0.70591 -10.86839,1.65526c-2.86968,0.77597 -5.83629,2.53133 -8.59387,3.68325c-6.49117,2.71157 -12.97932,5.4264 -19.4453,8.19754c-3.81683,1.63578 -7.0999,3.4713 -10.67935,5.49436c-1.08365,0.61246 -2.46606,0.71941 -3.4018,1.54025c-0.96966,0.85059 -2.33628,4.95575 -3.01006,6.3033c-0.74536,1.49071 -1.71611,2.88865 -2.23607,4.47214c-0.34034,1.03648 0.002,2.20781 -0.28484,3.26035c-0.49271,1.80796 -1.60328,3.42007 -2.01485,5.2482c-0.64761,2.87656 0.03576,6.95387 0.03576,9.92914c0,4.87315 0.97019,10.77329 0,15.5c-0.5473,2.66642 -2.89476,5.31681 -3.20214,7.9848c-0.59617,5.17468 1.0639,10.81608 0.20214,16.0152c-0.2948,1.7786 -1.05837,3.5808 -1.62829,5.29057c-1.04444,3.13333 -3.81408,5.61076 -4.63564,8.82746c-0.23872,0.93467 0.49522,1.94543 0.26393,2.88197c-0.6012,2.43442 -2.14456,4.87929 -3.26393,7.11803l-0.91121,1.82242c0.22311,0.46072 0.2397,0.92694 0.17514,1.32703z" fill="#000000" stroke="none" stroke-width="0.5" stroke-linecap="butt"/><path d="M147,351.5c0,9.66499 -9.40202,17.5 -21,17.5c-11.59798,0 -21,-7.83501 -21,-17.5c0,-9.66499 9.40202,-17.5 21,-17.5c11.59798,0 21,7.83501 21,17.5z" fill="#ff0000" stroke="none" stroke-width="0" stroke-linecap="butt"/><path d="M355,353c0,9.94113 -8.05887,18 -18,18c-9.94112,0 -18,-8.05887 -18,-18c0,-9.94112 8.05888,-18 18,-18c9.94113,0 18,8.05888 18,18z" fill="#ff0000" stroke="none" stroke-width="0" stroke-linecap="butt"/></g></g></svg>