<svg version="1.1" xmlns="http://www.w3.org/2000/svg" xmlns:xlink="http://www.w3.org/1999/xlink" width="299" height="325"><g transform="translate(-89,-46)"><g data-paper-data="{&quot;isPaintingLayer&quot;:true}" fill="none" fill-rule="nonzero" stroke="none" stroke-width="none" stroke-linecap="none" stroke-linejoin="miter" stroke-miterlimit="10" stroke-dasharray="" stroke-dashoffset="0" font-family="none" font-weight="none" font-size="none" text-anchor="none" style="mix-blend-mode: normal"><path d="M89,341v-295h299v295z" data-paper-data="{&quot;origPos&quot;:null}" fill="#ff0000" stroke="none" stroke-width="0" stroke-linecap="butt"/><path d="M327,95l-109,59l-98,-68l7,5" fill="none" stroke="#000000" stroke-width="5" stroke-linecap="round"/><path d="M276,155c0,-5.52285 4.47715,-10 10,-10c5.52285,0 10,4.47715 10,10c0,5.52285 -4.47715,10 -10,10c-5.52285,0 -10,-4.47715 -10,-10z" fill="#000000" stroke="none" stroke-width="0.5" stroke-linecap="butt"/><path d="M144,157c0,-5.52285 4.47715,-10 10,-10c5.52285,0 10,4.47715 10,10c0,5.52285 -4.47715,10 -10,10c-5.52285,0 -10,-4.47715 -10,-10z" fill="#000000" stroke="none" stroke-width="0.5" stroke-linecap="butt"/><path d="M94,334l291,2" fill="none" stroke="#000000" stroke-width="5" stroke-linecap="round"/><path d="M386.19475,333.69392c0.18762,0.33528 0.30715,0.76472 0.30524,1.31476c-0.00868,2.49998 -2.50867,2.4913 -2.50867,2.4913l-2.36303,-5.29055c1.07579,-3.22738 0.87171,-6.27938 0.87171,-9.70943c0,-5.33333 0,-10.66667 0,-16c0,-1 -0.51085,-2.14033 0,-3c0.13276,-0.22342 0.82149,0.51184 0.73223,0.26777c-0.53281,-1.45702 -2.14877,-2.33028 -2.73223,-3.76777c-0.73237,-1.80436 0,-5.52643 0,-7.5c0,-6.66667 0,-13.33333 0,-20c0,-11.16667 0,-22.33333 0,-33.5c0,-6.66667 0,-13.33333 0,-20c0,-2.30957 -0.61496,-3.677 -1,-6c-0.08176,-0.49327 -0.25542,-1.07016 0,-1.5c0.13276,-0.22342 0.86967,0.48834 0.73223,0.26777c-0.90657,-1.45501 -2.77465,-2.77465 -4,-4c-1.35886,-1.35886 -2.81086,-3.42098 -4.32289,-4.51822c-3.13621,-2.27586 -7.43795,-2.78709 -11,-4c-2.14558,-0.73059 -4.1046,-2.12235 -6.29078,-2.77882c-1.25593,-0.37713 -2.6173,-0.29752 -3.87926,-0.65397c-3.55248,-1.00342 -6.42946,-2.31676 -10.23931,-2.31676c-2.69422,-0.26234 -3.85083,-1.26661 -6.26387,-2.11091c-2.82087,-0.98699 -6.26748,-1.57429 -9.23613,-1.88909c-2.50797,-0.26595 -5.11087,0.11724 -7.63094,-0.0588c-5.02317,-0.35091 -9.60079,-2.25678 -14.54727,-2.94756c-4.24477,-0.59278 -8.12073,-0.95805 -12.24065,-2.33136c-2.74003,-1.14769 -5.48169,-0.31155 -8.37171,-0.79057c-1.77762,-0.29464 -3.48294,-1.58125 -5.20943,-1.87171c-1.24673,-0.20975 -2.54334,0.07844 -3.79057,-0.12829c-1.77762,-0.29464 -3.48294,-1.58125 -5.20943,-1.87171c-2.2032,-0.37066 -4.55256,0.24425 -6.78163,-0.12533c-1.72752,-0.28642 -3.52167,-1.08582 -5.25721,-1.43293c-3.0933,-0.69675 -6.29608,-0.44174 -9.46116,-0.44174c-4.32026,0 -9.49888,-0.83666 -13.70943,-0.12829c-1.30004,0.21871 -2.49,0.91272 -3.79057,1.12829c-2.34898,0.38935 -5.11429,0 -7.5,0c-5.66667,0 -11.33333,0 -17,0c-2.06243,0 -4.72086,-0.46284 -6.70943,-0.12829c-2.31692,0.38979 -4.44861,1.74011 -6.79057,2.12829c-1.52693,0.25309 -3.46391,0 -5,0c-6.29572,0 -12.65932,1.57085 -18.70943,3.37171c-2.2471,0.66887 -4.81021,0.15595 -6.90382,1.20842c-4.47334,2.24878 -8.36958,4.88272 -13.22447,6.50101c-1.36311,0.45437 -3.45548,0.83539 -4.77553,1.49899c-2.38679,1.19986 -4.30348,3.27746 -6.78041,4.34523c-1.0057,0.43354 -2.21153,0.22674 -3.21959,0.65477c-1.93633,0.82219 -4.11942,2.05462 -6,3c-1.49205,0.75007 -2.79793,1.90561 -4.38675,2.41987c-0.4757,0.15397 -1.07016,0.25542 -1.5,0c-0.22342,-0.13276 0.51184,-0.82149 0.26777,-0.73223c-2.44205,0.89302 -3.67879,4.17114 -6.4772,5.10394c-1.25483,-0.24948 -3.60494,2.9782 -4.5228,3.89606c-0.76147,0.76147 -2.9796,2.31506 -3.39606,3.0228c-0.72495,1.23201 -0.86393,2.75417 -1.60394,3.9772c-1.24606,2.05937 -3.28082,4.062 -4.68764,6.11898c-0.56653,0.82836 -1.83578,2.85037 -2.81236,3.38102c-0.23815,0.12941 -0.65794,-0.51556 -0.76777,-0.26777c-0.54754,1.23536 0,4.09965 0,5.5c0,7.83333 0,15.66667 0,23.5c0,3.64709 -0.77205,8.27817 0.37171,11.70943c1.07858,3.9322 0.05718,7.7232 0.55365,11.68423c0.19608,1.56444 0.85613,3.04488 1.07464,4.60634c0.91767,6.55757 0,13.87067 0,20.5c0,2.71492 -0.5716,4.95362 -1,7.5c-0.39447,2.3447 0,5.11753 0,7.5c0,4.3262 -0.49117,8.62079 0.87171,12.70943c0,0 0.79057,2.37171 -1.58114,3.16228c-2.37171,0.79057 -3.16228,-1.58114 -3.16228,-1.58114c-1.54715,-4.64145 -1.12829,-9.43486 -1.12829,-14.29057c0,-2.38571 -0.38935,-5.15102 0,-7.5c0.4717,-2.84582 1,-4.59588 1,-7.5c0,-6.60918 0.95993,-13.96967 0,-20.5c-0.17052,-1.16005 -0.78021,-2.23016 -0.92536,-3.39366c-0.40021,-3.20804 1.06891,-8.4238 -0.44635,-11.31577c-1.34017,-4.02051 -0.62829,-9.06772 -0.62829,-13.29057c0,-7.83333 0,-15.66667 0,-23.5c0,-1.42614 -0.53858,-4.22902 0,-5.5c0.78747,-1.85832 2.43836,-3.21878 3.73223,-4.76777c1.41834,-1.698 2.29657,-3.88581 3.68764,-5.61898c0.69251,-0.86282 1.75128,-1.42749 2.31236,-2.38102c0.34844,-0.59216 0.04038,-1.43496 0.39606,-2.0228c2.24334,-3.70759 7.21483,-8.35815 11.08114,-10.08114c2.02991,-0.67664 2.55158,-3.09596 4.5228,-3.89606c1.48984,-0.60471 3.25473,-0.18814 4.76777,-0.73223c0.70832,-0.25471 0.9395,-1.24447 1.61325,-1.58013c3.53143,-1.75932 7.17624,-2.81486 10.78041,-4.34523c1.82033,-0.77293 3.3953,-2.74593 5.21959,-3.65477c1.81431,-0.90387 4.05539,-1.44465 5.96789,-2.08215c4.40775,-1.46925 7.96867,-3.89348 12.03211,-5.91785c2.5848,-1.28772 4.69181,-0.96648 7.38675,-1.41987c7.15691,-1.20406 13.58457,-4 21,-4c1.53249,0 3.47693,0.25624 5,0c1.72649,-0.29046 3.43181,-1.57706 5.20943,-1.87171c2.65521,-0.4401 5.60333,-0.12829 8.29057,-0.12829c5.66667,0 11.33333,0 17,0c11.63273,0 23.72046,-2.60815 35.44174,-0.46116c1.95725,0.39145 3.89739,1.25712 5.83989,1.58649c1.61461,0.27377 3.54969,-0.40192 5.21837,-0.12533c5.38752,0.89299 10.41209,3.22343 15.79057,4.12829c2.95726,0.49752 5.26206,-0.113 8.37171,0.79057c4.58579,1.5286 9.09544,1.70134 13.77946,2.61998c4.06887,0.79799 7.87208,2.14669 12.03828,2.43983c3.36184,0.23654 6.54556,-0.07059 9.89696,0.46635c3.53443,0.56626 6.87616,1.25214 10.11939,2.7847c0.78945,0.37305 1.76301,1.23276 2.50363,0.77028c4.42622,0 7.86543,1.44782 12.0112,2.64125c3.59564,1.03507 7.01955,2.4258 10.57945,3.6092c3.58245,1.19089 7.83694,1.72587 11,4c2.0879,1.50112 3.86218,3.66685 5.67711,5.48178c1.10764,1.10764 3.35297,2.61803 4,4c0.68178,1.45619 0.46548,3.18216 0.73223,4.76777c0.13135,0.78075 0.74225,1.42836 0.87171,2.20943c1.24855,7.53266 0.12829,16.15512 0.12829,23.79057c0,11.16667 0,22.33333 0,33.5c0,6.66667 0,13.33333 0,20c0,2.04907 -0.69631,5.59588 0,7.5c0.09309,0.25455 0.00116,-0.8166 0.26777,-0.76777c0.46369,0.08494 0.82271,0.5632 1,1c0.86796,2.13842 0.73223,4.07906 0.73223,6.26777c0,8.60714 1.60567,19.08868 -1.12829,27.29057z" fill="#000000" stroke="none" stroke-width="0.5" stroke-linecap="butt"/><path d="M147,351.5c0,9.66499 -9.40202,17.5 -21,17.5c-11.59798,0 -21,-7.83501 -21,-17.5c0,-9.66499 9.40202,-17.5 21,-17.5c11.59798,0 21,7.83501 21,17.5z" fill="#ff0000" stroke="none" stroke-width="0" stroke-linecap="butt"/><path d="M355,353c0,9.94113 -8.05887,18 -18,18c-9.94112,0 -18,-8.05887 -18,-18c0,-9.94112 8.05888,-18 18,-18c9.94113,0 18,8.05888 18,18z" fill="#ff0000" stroke="none" stroke-width="0" stroke-linecap="butt"/></g></g></svg>