<svg version="1.1" xmlns="http://www.w3.org/2000/svg" xmlns:xlink="http://www.w3.org/1999/xlink" width="299" height="325"><g transform="translate(-89,-46)"><g data-paper-data="{&quot;isPaintingLayer&quot;:true}" fill="none" fill-rule="nonzero" stroke="none" stroke-width="none" stroke-linecap="none" stroke-linejoin="miter" stroke-miterlimit="10" stroke-dasharray="" stroke-dashoffset="0" font-family="none" font-weight="none" font-size="none" text-anchor="none" style="mix-blend-mode: normal"><path d="M89,341v-295h299v295z" data-paper-data="{&quot;origPos&quot;:null}" fill="#ff0000" stroke="none" stroke-width="0" stroke-linecap="butt"/><path d="M327,95l-109,59l-98,-68l7,5" fill="none" stroke="#000000" stroke-width="5" stroke-linecap="round"/><path d="M276,155c0,-5.52285 4.47715,-10 10,-10c5.52285,0 10,4.47715 10,10c0,5.52285 -4.47715,10 -10,10c-5.52285,0 -10,-4.47715 -10,-10z" fill="#000000" stroke="none" stroke-width="0.5" stroke-linecap="butt"/><path d="M144,157c0,-5.52285 4.47715,-10 10,-10c5.52285,0 10,4.47715 10,10c0,5.52285 -4.47715,10 -10,10c-5.52285,0 -10,-4.47715 -10,-10z" fill="#000000" stroke="none" stroke-width="0.5" stroke-linecap="butt"/><path d="M323.49997,209.98725c0.01275,2.49997 -2.48721,2.51272 -2.48721,2.51272l1.06737,0.88678c-0.33333,0.5 -0.66667,1 -1,1.5c-2.08849,3.12482 -4.26289,6.41975 -6.70576,9.27441c-2.90129,3.39036 -7.44136,6.10329 -10.00266,9.6294c-1.15664,1.59233 -1.35818,4.50817 -2.13564,6.32746c-1.77162,4.14565 -3.65469,8.01684 -6.15594,11.76872c-2.85081,3.63715 -3.43875,8.96788 -6.31236,12.88102c-2.90547,3.95653 -7.27483,5.969 -11.38102,8.31236c-2.27026,1.29561 -4.2481,3.12179 -6.59618,4.29158c-1.56583,0.78008 -2.38246,0.69418 -3.90382,1.70842c-3.61818,2.22938 -8.69599,4.73981 -12.88675,5.41987c-2.32959,0.37804 -5.13633,0 -7.5,0c-4.65847,0 -9.55507,0.38364 -14.18448,-0.08739c-3.74358,-0.38089 -7.40206,-1.65398 -11.14491,-2.12183c-2.37537,-0.29692 -4.99578,-0.38068 -7.28864,-1.05471c-1.21737,-0.35787 -2.17343,-1.34217 -3.36333,-1.78285c-4.07682,-1.50983 -8.52428,-1.7448 -12.51741,-3.73701c-2.39182,-1.1933 -4.44209,-3.16329 -6.79179,-4.3445c-2.26393,-1.1381 -4.97861,-1.25617 -7.32746,-2.13564c-2.01111,-0.75301 -3.37544,-1.7825 -5.48831,-2.31071c-2.4732,-0.75184 -4.16525,-1.49715 -6.16143,-3.15759c-1.25087,-1.04049 -2.83548,-3.6974 -4.0228,-4.39606c-2.34498,-1.37985 -4.74082,-1.80899 -6.9772,-3.60394c-3.96638,-3.18349 -7.2291,-7.59409 -11.35027,-10.5317c-2.16692,-1.5446 -4.39807,-2.00329 -5.96209,-4.34932c-1.55048,-2.52307 -4.11379,-4.2324 -6,-6.5c-5.76959,-6.9362 -12.09675,-14.15032 -16.15594,-22.26872c0,0 -1.11803,-2.23607 1.11803,-3.3541c2.23607,-1.11803 3.3541,1.11803 3.3541,1.11803c3.94969,7.89938 10.20749,14.98334 15.84406,21.73128c1.92816,2.30834 4.25866,4.00413 6,6.5c1.43194,2.14792 4.14993,2.68257 6.18764,4.61898c3.32596,3.16062 6.90729,6.63863 10.5,9.5c1.60428,1.27771 3.39483,1.41102 5.0228,2.39606c3.46706,2.09781 5.53003,6.90248 9.81577,7.44635c2.38001,0.595 4.25146,1.84002 6.51169,2.68929c2.13395,0.80182 4.58877,0.82625 6.67254,1.86436c2.71741,1.35379 5.0604,3.43548 7.78313,4.80045c3.43826,1.72369 7.37797,1.84191 10.90766,3.11803c1.61111,0.58248 2.99134,1.73984 4.63667,2.21715c1.68805,0.4897 3.89116,0.34276 5.67275,0.56546c3.86272,0.48284 7.64259,1.7873 11.50532,2.18032c4.27393,0.43486 8.89555,-0.00971 13.2039,-0.00971c2.36367,0 5.17041,0.37804 7.5,0c2.10955,-0.34233 3.81229,-1.75794 5.66928,-2.61641c1.58014,-0.73048 3.07307,-0.8892 4.44397,-1.96372c1.65126,-1.10084 3.37159,-1.42462 5.09618,-2.29158c1.89649,-0.95338 3.54268,-2.64373 5.40382,-3.70842c3.83311,-2.19278 7.93966,-3.95368 10.61898,-7.68764c2.66743,-3.7174 3.32553,-8.28539 5.68764,-12.11898c2.41114,-3.61671 4.12027,-7.22297 5.84406,-11.23128c0.73541,-1.71004 0.82404,-4.13473 1.86436,-5.67254c2.99436,-4.42626 7.75749,-7.54867 11.21054,-11.5838c2.22084,-2.59521 4.18809,-5.66485 6.08104,-8.51238c0.33333,-0.5 0.66667,-1 1,-1.5l3.06737,-3.11322c0,0 2.49997,-0.01275 2.51272,2.48721z" fill="#000000" stroke="none" stroke-width="0.5" stroke-linecap="butt"/><path d="M147,351.5c0,9.66499 -9.40202,17.5 -21,17.5c-11.59798,0 -21,-7.83501 -21,-17.5c0,-9.66499 9.40202,-17.5 21,-17.5c11.59798,0 21,7.83501 21,17.5z" fill="#ff0000" stroke="none" stroke-width="0" stroke-linecap="butt"/><path d="M355,353c0,9.94113 -8.05887,18 -18,18c-9.94112,0 -18,-8.05887 -18,-18c0,-9.94112 8.05888,-18 18,-18c9.94113,0 18,8.05888 18,18z" fill="#ff0000" stroke="none" stroke-width="0" stroke-linecap="butt"/></g></g></svg>