<svg version="1.1" xmlns="http://www.w3.org/2000/svg" xmlns:xlink="http://www.w3.org/1999/xlink" width="299" height="325"><g transform="translate(-89,-46)"><g data-paper-data="{&quot;isPaintingLayer&quot;:true}" fill="none" fill-rule="nonzero" stroke="none" stroke-width="none" stroke-linecap="none" stroke-linejoin="miter" stroke-miterlimit="10" stroke-dasharray="" stroke-dashoffset="0" font-family="none" font-weight="none" font-size="none" text-anchor="none" style="mix-blend-mode: normal"><path d="M89,341v-295h299v295z" data-paper-data="{&quot;origPos&quot;:null}" fill="#ff0000" stroke="none" stroke-width="0" stroke-linecap="butt"/><path d="M327,95l-109,59l-98,-68l7,5" fill="none" stroke="#000000" stroke-width="5" stroke-linecap="round"/><path d="M276,155c0,-5.52285 4.47715,-10 10,-10c5.52285,0 10,4.47715 10,10c0,5.52285 -4.47715,10 -10,10c-5.52285,0 -10,-4.47715 -10,-10z" fill="#000000" stroke="none" stroke-width="0.5" stroke-linecap="butt"/><path d="M144,157c0,-5.52285 4.47715,-10 10,-10c5.52285,0 10,4.47715 10,10c0,5.52285 -4.47715,10 -10,10c-5.52285,0 -10,-4.47715 -10,-10z" fill="#000000" stroke="none" stroke-width="0.5" stroke-linecap="butt"/><path d="M290.49189,219.20121c-0.20121,2.49189 -2.6931,2.29068 -2.6931,2.29068l0.03261,0.20987c-1.75588,1.88964 -4.12006,3.90178 -5.45969,6.08881c-0.74666,1.21898 -0.86393,2.75417 -1.60394,3.9772c-3.16435,5.22974 -11.33117,9.20475 -16.72679,11.27944c-2.20949,0.78914 -3.9943,2.14515 -6.05618,3.25066c-3.06574,1.64375 -6.61255,2.36907 -9.70545,3.84999c-2.08772,0.99962 -1.88627,1.49803 -4.31266,2.41708c-4.47576,1.6953 -9.52625,2.64717 -14.17612,3.80677c-2.82759,0.70516 -5.31368,2.12829 -8.29057,2.12829c-13,0 -26,0 -39,0c-1.7574,-0.09454 -3.02105,-0.81893 -4.60396,-1.00575c-1.81533,-0.21425 -3.66465,0.12039 -5.48343,-0.06222c-4.23947,-0.42565 -9.49504,-2.43439 -13.18038,-4.66427c-0.49356,-0.29864 -0.52561,-1.1035 -1.0228,-1.39606c-1.46802,-0.86382 -3.28928,-1.21263 -4.51215,-2.39832c-0.67659,-0.65603 -0.3757,-1.90756 -0.92951,-2.67008c-2.12591,-2.92711 -5.4676,-5.4676 -8.03553,-8.03553c-1.36198,-1.36198 -3.09946,-2.81709 -4.10394,-4.4772c-1.03684,-1.71359 -1.3827,-3.5473 -2.62829,-5.29057c-1.88851,-2.64307 -4.37159,-4.7754 -6.23607,-7.38197c-1.40078,-1.95831 -3.38609,-5.49707 -4.2348,-7.72484c-0.43167,-1.13308 0.12489,-2.48863 -0.2969,-3.62543c-0.32796,-0.88393 -1.33333,-1.33333 -2,-2c0,0 -1.76777,-1.76777 0,-3.53553c1.76777,-1.76777 3.53553,0 3.53553,0c2.49758,2.49758 2.49037,4.97028 3.66427,8.18038c0.31766,0.86868 1.20603,1.41725 1.66213,2.22192c0.7819,1.37946 1.22153,2.95624 2.14191,4.24743c1.14063,1.60019 3.03464,2.9949 4.26393,4.61803c1.19293,1.57512 2.69028,3.3271 3.58013,5.11325c0.56796,1.14005 0.64564,2.49843 1.29158,3.59618c0.0659,0.11199 2.86091,2.48765 2.89606,2.5228c2.54991,2.54991 5.96368,5.10391 8.03553,8.03553c0.90512,1.28072 0.97445,3.07186 1.99942,4.25885c0.19572,0.22666 -0.30143,-0.82088 -0.01215,-0.89832c0.50912,-0.1363 1.04907,0.22716 1.5,0.5c1.12801,0.68252 1.8409,1.93531 2.9772,2.60394c0.59216,0.34844 1.391,0.12606 2.0228,0.39606c1.47918,0.63212 2.80147,1.62684 4.32746,2.13564c2.91668,0.97248 5.84933,0.34409 8.79169,0.73034c1.56805,0.20584 3.01584,1.27012 4.59027,1.00573c13,0 26,0 39,0c2.36416,0 4.40997,-1.293 6.70943,-1.87171c4.83764,-1.21749 10.03062,-2.21161 14.70089,-3.95049c1.04688,-0.38978 1.80067,-1.34767 2.81034,-1.82566c3.32171,-1.57254 7.03677,-2.38726 10.29455,-4.15001c2.13185,-1.15352 3.96362,-2.40933 6.23129,-3.32182c4.82839,-1.85658 12.20212,-5.41748 14.98574,-10.14808c0.34844,-0.59216 0.04802,-1.43041 0.39606,-2.0228c1.72351,-2.93356 4.24058,-5.43627 6.54031,-7.91119l4.03261,-1.79013c0,0 2.49189,0.20121 2.29068,2.6931z" fill="#000000" stroke="none" stroke-width="0.5" stroke-linecap="butt"/><path d="M147,351.5c0,9.66499 -9.40202,17.5 -21,17.5c-11.59798,0 -21,-7.83501 -21,-17.5c0,-9.66499 9.40202,-17.5 21,-17.5c11.59798,0 21,7.83501 21,17.5z" fill="#ff0000" stroke="none" stroke-width="0" stroke-linecap="butt"/><path d="M355,353c0,9.94113 -8.05887,18 -18,18c-9.94112,0 -18,-8.05887 -18,-18c0,-9.94112 8.05888,-18 18,-18c9.94113,0 18,8.05888 18,18z" fill="#ff0000" stroke="none" stroke-width="0" stroke-linecap="butt"/></g></g></svg>