<svg version="1.1" xmlns="http://www.w3.org/2000/svg" xmlns:xlink="http://www.w3.org/1999/xlink" width="299" height="325"><g transform="translate(-89,-46)"><g data-paper-data="{&quot;isPaintingLayer&quot;:true}" fill="none" fill-rule="nonzero" stroke="none" stroke-width="none" stroke-linecap="none" stroke-linejoin="miter" stroke-miterlimit="10" stroke-dasharray="" stroke-dashoffset="0" font-family="none" font-weight="none" font-size="none" text-anchor="none" style="mix-blend-mode: normal"><path d="M89,341v-295h299v295z" data-paper-data="{&quot;origPos&quot;:null}" fill="#ff0000" stroke="none" stroke-width="0" stroke-linecap="butt"/><path d="M327,95l-109,59l-98,-68l7,5" fill="none" stroke="#000000" stroke-width="5" stroke-linecap="round"/><path d="M276,155c0,-5.52285 4.47715,-10 10,-10c5.52285,0 10,4.47715 10,10c0,5.52285 -4.47715,10 -10,10c-5.52285,0 -10,-4.47715 -10,-10z" fill="#000000" stroke="none" stroke-width="0.5" stroke-linecap="butt"/><path d="M144,157c0,-5.52285 4.47715,-10 10,-10c5.52285,0 10,4.47715 10,10c0,5.52285 -4.47715,10 -10,10c-5.52285,0 -10,-4.47715 -10,-10z" fill="#000000" stroke="none" stroke-width="0.5" stroke-linecap="butt"/><path d="M295.49996,203.01497c-0.01497,2.49996 -0.41983,1.37178 -0.41983,1.37178l-1,1.5c-3.61368,4.61043 -3.95823,12.18295 -6,17.5c-0.33082,0.86151 -1.29409,1.37014 -1.65477,2.21959c-0.60786,1.43156 -0.64393,3.05517 -1.18929,4.51169c-0.67971,1.81534 -1.76028,3.35638 -2.37111,5.21214c-0.7631,2.21603 -0.88359,4.56847 -1.62889,6.78786c-2.28939,6.8174 -5.77849,13.55699 -9,20c-1.16888,2.33776 -2.05536,5.56433 -3.54798,7.67123c-2.44388,3.44964 -6.93776,5.51882 -10.44306,7.66431c-9.94569,5.70082 -21.45745,7.1231 -32.83242,5.97846c-5.01562,-0.50471 -10.14469,-2.28811 -15.01895,-3.50668c-2.22582,-0.67664 -3.12381,-1.70335 -5,-2.5c-1.43156,-0.60786 -3.05188,-0.65282 -4.51169,-1.18929c-5.07023,-1.86326 -10.42956,-4.74512 -15.26872,-7.15594c-1.74674,-0.87021 -3.11698,-2.41728 -4.78701,-3.37192c-3.14818,-1.7996 -6.67842,-3.69037 -10.11681,-4.8365c-6.41404,-2.25713 -11.88321,-6.63977 -17.09618,-10.79158c-6.07458,-4.83803 -11.55543,-9.54107 -13.53861,-17.47379c-0.44966,-2.15386 -1.58546,-3.80125 -2.44635,-5.81577c-0.26999,-0.6318 -0.04762,-1.43064 -0.39606,-2.0228c-1.17674,-1.9998 -3.25854,-3.53499 -4.4683,-5.64973c-2.08213,-3.63968 -4.30619,-7.56777 -6.13564,-11.32746c-0.93737,-1.92638 -0.72151,-2.34825 -2.39606,-4.0228c0,0 -1.76777,-1.76777 0,-3.53553c1.76777,-1.76777 3.53553,0 3.53553,0c1.89655,1.89655 2.43112,3.60781 3.60394,5.9772c1.75119,3.53782 3.90036,7.23108 5.86436,10.67254c0.94903,1.66296 2.59343,2.79958 3.5317,4.35027c1.7433,2.88116 3.27575,6.94809 4.15759,10.16143c2.21667,8.86666 10.78506,14.74199 17.96139,19.52621c2.89786,1.93191 6.03945,4.19091 9.40382,5.20842c3.64315,1.21438 7.44366,3.1757 10.77174,5.10778c1.85338,1.07596 3.39889,2.71581 5.32444,3.68381c4.58507,2.30495 9.88076,5.06525 14.73128,6.84406c1.12077,0.41101 2.39207,0.33814 3.48831,0.81071c1.90203,0.81994 2.94833,2.23964 5,2.5c9.9153,2.47882 20.07289,4.71895 30.39366,3.42536c2.58732,-0.32429 4.53083,-1.83426 6.88197,-2.73607c2.41406,-0.92594 4.60203,-1.10659 6.75283,-2.57495c3.31719,-2.03036 7.19646,-3.86743 9.61944,-7.03409c0.40706,-0.532 0.11696,-1.35807 0.38331,-1.9727c0.19919,-0.45964 1.84026,-3.72797 2.12639,-4.30023c3.21358,-6.42717 6.72962,-13.19065 9,-20c0.64736,-1.94156 0.71765,-4.12599 1.35169,-6.11505c0.68265,-2.07395 1.8876,-3.8604 2.64831,-5.88495c0.41989,-1.11748 0.33814,-2.39207 0.81071,-3.48831c0.58705,-1.36178 1.83521,-2.38795 2.34523,-3.78041c0.46459,-1.26843 0.22647,-2.71098 0.60925,-4.00644c1.2866,-4.35423 3.00671,-9.62437 5.39075,-13.49356l1,-1.5c0,0 4.59505,-1.09823 4.58008,1.40172z" fill="#000000" stroke="none" stroke-width="0.5" stroke-linecap="butt"/><path d="M147,351.5c0,9.66499 -9.40202,17.5 -21,17.5c-11.59798,0 -21,-7.83501 -21,-17.5c0,-9.66499 9.40202,-17.5 21,-17.5c11.59798,0 21,7.83501 21,17.5z" fill="#ff0000" stroke="none" stroke-width="0" stroke-linecap="butt"/><path d="M355,353c0,9.94113 -8.05887,18 -18,18c-9.94112,0 -18,-8.05887 -18,-18c0,-9.94112 8.05888,-18 18,-18c9.94113,0 18,8.05888 18,18z" fill="#ff0000" stroke="none" stroke-width="0" stroke-linecap="butt"/></g></g></svg>