<svg version="1.1" xmlns="http://www.w3.org/2000/svg" xmlns:xlink="http://www.w3.org/1999/xlink" width="299" height="325"><g transform="translate(-89,-46)"><g data-paper-data="{&quot;isPaintingLayer&quot;:true}" fill="none" fill-rule="nonzero" stroke="none" stroke-width="none" stroke-linecap="none" stroke-linejoin="miter" stroke-miterlimit="10" stroke-dasharray="" stroke-dashoffset="0" font-family="none" font-weight="none" font-size="none" text-anchor="none" style="mix-blend-mode: normal"><path d="M89,341v-295h299v295z" data-paper-data="{&quot;origPos&quot;:null}" fill="#ff0000" stroke="none" stroke-width="0" stroke-linecap="butt"/><path d="M327,95l-109,59l-98,-68l7,5" fill="none" stroke="#000000" stroke-width="5" stroke-linecap="round"/><path d="M276,155c0,-5.52285 4.47715,-10 10,-10c5.52285,0 10,4.47715 10,10c0,5.52285 -4.47715,10 -10,10c-5.52285,0 -10,-4.47715 -10,-10z" fill="#000000" stroke="none" stroke-width="0.5" stroke-linecap="butt"/><path d="M144,157c0,-5.52285 4.47715,-10 10,-10c5.52285,0 10,4.47715 10,10c0,5.52285 -4.47715,10 -10,10c-5.52285,0 -10,-4.47715 -10,-10z" fill="#000000" stroke="none" stroke-width="0.5" stroke-linecap="butt"/><path d="M169.91987,215.38675c-1.38675,-2.08013 0.69338,-3.46688 0.69338,-3.46688l0.61898,0.31236c0.30613,-0.30613 0.76227,-0.70793 1.31606,-1.14097c-1.33551,-0.33407 -2.67164,-0.58902 -3.94148,-0.62039c-1.27038,-0.03138 -4.19404,2.77472 -5.18006,3.49183c-3.47298,2.52581 -7.04808,6.02895 -10.76936,8.11295c-2.90089,1.62457 -4.98502,1.63997 -7.38963,4.19212c-1.81928,1.81928 -0.76777,2.28555 -0.76777,5.23223c0,3.03906 -0.73115,6.98547 0.87171,9.70943c0.0659,0.11199 2.86091,2.48765 2.89606,2.5228c3.38859,3.38859 7.12553,6.12553 10.5,9.5c4.06573,4.06573 9.24448,5.94671 14.62543,7.2969c3.62706,0.9101 6.73226,3.48255 10.39738,4.09916c3.72295,0.62634 8.41776,-0.12829 12.20943,-0.12829c10.16667,0 20.33333,0 30.5,0c5.32075,0 11.25095,0.73183 16.46116,-0.44174c4.99816,-0.99963 10.03991,-1.47596 15.10649,-1.9802c1.68338,-0.16754 4.02453,-0.09363 5.68476,-0.56577c1.38094,-0.39271 2.55545,-1.40014 3.96149,-1.69043c1.91568,-0.39551 3.9208,-0.05474 5.85997,-0.31137c0.94304,-0.1248 1.76678,-0.75754 2.70659,-0.9047c1.22541,-0.19189 2.80723,0.73455 3.71953,-0.10578c0.28128,-0.25909 -1.0639,-0.00467 -1.08013,-0.38675c-0.0255,-0.60038 0.80512,-0.93155 1,-1.5c0.57772,-1.68516 0.43969,-4.30686 0.45787,-6.09975c0.03415,-1.54761 -0.25332,-4.00881 0.12286,-5.56864c0.45946,-1.90511 1.5175,-3.62559 2.03515,-5.51572c0.62691,-2.28907 0.68201,-4.6475 1.38956,-6.96402c0.7857,-2.57236 3.53428,-5.7966 2.57468,-8.46512c-0.25471,-0.70832 -1.14252,-1.0008 -1.58013,-1.61325c-2.8889,-4.04318 -6.64245,-6.5444 -10.80662,-9.30662c-3.1077,-2.0718 -6.83049,-2.84317 -10.29225,-4.16517c-3.09796,-1.18307 -6.17653,-3.16025 -9.37838,-4.00606c-1.37956,-0.36443 -2.92677,0.12375 -4.26437,-0.37306c-1.4366,-0.53359 -2.30207,-2.21222 -3.78025,-2.61657c-0.22636,-0.06192 -0.16991,0.5255 -0.398,0.58073c-0.64794,0.15691 -1.34037,0.09659 -2,0c-1.3044,-0.19101 -2.48449,-0.94911 -3.79057,-1.12829c-2.66317,-0.36536 -5.99318,0.12829 -8.70943,0.12829c-6.19528,0 -13.99618,-1.23153 -19.91261,0.93203c-2.17194,0.79425 -4.04933,3.14169 -6.46935,3.80404c-1.3267,0.36311 -2.82368,-0.20152 -4.11803,0.26393c-0.70832,0.25471 -0.88538,1.38827 -1.61325,1.58013c-2.65253,0.69917 -5.20545,0.05933 -7.78041,0.84523c-2.0646,0.51615 -4.68484,1.01237 -6.55919,2.02749c-0.62575,0.33889 -0.57012,1.46067 -1.21913,1.75254c-2.63633,1.18558 -5.58721,0.51289 -8.22168,1.71997c-0.47965,0.21977 -0.4655,0.96934 -0.83857,1.34241l-1.38102,0.31236c0,0 -2.08013,1.38675 -3.46688,-0.69338zM180.5,208.5c0.11376,0.07713 -0.0156,0.29342 -0.15296,0.48308c0.02406,0.05547 0.04607,0.11294 0.06575,0.17247c1.17922,-0.75199 1.83655,-2.23117 3.05322,-2.94612c1.91547,-1.12558 4.77731,-1.5972 6.92765,-2.13479c2.17116,-0.4787 2.88661,-0.83259 5.10634,-0.57464c0.39395,0.04578 0.72608,0.50582 1.11325,0.41987c1.63029,-0.36191 2.79793,-1.90561 4.38675,-2.41987c0.60268,-0.19507 1.27674,0.45096 1.88197,0.26393c2.82913,-0.87425 5.00095,-3.19708 7.72484,-4.2348c6.11576,-2.32992 14.46047,-1.02913 20.89319,-1.02913c3.33853,0 6.98649,-0.35554 10.29057,0.12829c0.78337,0.11471 1.42505,0.7641 2.20943,0.87171c1.85992,0.25516 3.82058,-0.01167 5.602,0.58073c0.59163,0.19674 0.53976,1.30205 1.13535,1.48646c1.82188,0.56411 3.82895,0.25804 5.67292,0.74515c3.08522,0.815 6.02309,2.72471 9.00785,3.86456c3.88182,1.48242 7.97319,2.41268 11.46863,4.74298c5.70926,3.82254 12.37114,8.15304 14.61325,15.08013c0.91823,2.83689 -1.14926,5.3391 -2.11306,7.74332c-1.25426,3.12876 -1.33164,6.33995 -2.20879,9.54277c-0.36329,1.32649 -1.32904,2.43892 -1.67875,3.76905c-0.3971,1.51039 -0.08987,4.07332 -0.12286,5.56864c-0.15665,5.05106 -0.48771,10.08684 -5.37653,12.87622c-1.07163,0.61143 -1.3673,-0.25389 -2.28047,-0.10578c-1.37013,0.22222 -2.63757,0.92204 -4.0122,1.11449c-1.36558,0.19118 -2.78605,-0.32328 -4.13647,-0.04447c-1.85909,0.38383 -3.49181,1.52423 -5.32328,2.02347c-6.41013,1.74735 -13.72815,1.15791 -20.30584,2.47345c-5.68324,1.041 -11.67379,0.53884 -17.44174,0.53884c-10.16667,0 -20.33333,0 -30.5,0c-4.42349,0 -9.39979,0.59948 -13.79057,-0.12829c-3.49819,-0.57983 -6.36909,-3.08639 -9.79682,-3.93968c-6.34455,-1.57938 -12.419,-3.90289 -17.18038,-8.66427c-4.62069,-4.62069 -11.14118,-8.25426 -14.60394,-13.9772c-1.8868,-3.11832 -1.12829,-7.81225 -1.12829,-11.29057c0,-3.32118 -0.27318,-6.26235 2.23223,-8.76777c1.70719,-1.64488 3.40874,-3.11437 5.58668,-4.13767c0.68034,-0.31966 1.56774,-0.04105 2.21501,-0.42326c3.78871,-2.23725 7.37134,-5.64819 10.95197,-8.25228c2.77274,-2.01654 5.46044,-4.3038 9.1015,-4.35105c2.26429,-0.02938 4.85761,0.81112 7.218,1.5069l1.48088,-1.03335l1.48965,2.13479c0.25999,0.06765 0.50285,0.1737 0.72408,0.32369z" fill="#000000" stroke="none" stroke-width="0.5" stroke-linecap="butt"/><path d="M147,351.5c0,9.66499 -9.40202,17.5 -21,17.5c-11.59798,0 -21,-7.83501 -21,-17.5c0,-9.66499 9.40202,-17.5 21,-17.5c11.59798,0 21,7.83501 21,17.5z" fill="#ff0000" stroke="none" stroke-width="0" stroke-linecap="butt"/><path d="M355,353c0,9.94113 -8.05887,18 -18,18c-9.94112,0 -18,-8.05887 -18,-18c0,-9.94112 8.05888,-18 18,-18c9.94113,0 18,8.05888 18,18z" fill="#ff0000" stroke="none" stroke-width="0" stroke-linecap="butt"/></g></g></svg>