<svg version="1.1" xmlns="http://www.w3.org/2000/svg" xmlns:xlink="http://www.w3.org/1999/xlink" width="299" height="325"><g transform="translate(-89,-46)"><g data-paper-data="{&quot;isPaintingLayer&quot;:true}" fill="none" fill-rule="nonzero" stroke="none" stroke-width="none" stroke-linecap="none" stroke-linejoin="miter" stroke-miterlimit="10" stroke-dasharray="" stroke-dashoffset="0" font-family="none" font-weight="none" font-size="none" text-anchor="none" style="mix-blend-mode: normal"><path d="M89,341v-295h299v295z" data-paper-data="{&quot;origPos&quot;:null}" fill="#ff0000" stroke="none" stroke-width="0" stroke-linecap="butt"/><path d="M327,95l-109,59l-98,-68l7,5" fill="none" stroke="#000000" stroke-width="5" stroke-linecap="round"/><path d="M276,155c0,-5.52285 4.47715,-10 10,-10c5.52285,0 10,4.47715 10,10c0,5.52285 -4.47715,10 -10,10c-5.52285,0 -10,-4.47715 -10,-10z" fill="#000000" stroke="none" stroke-width="0.5" stroke-linecap="butt"/><path d="M144,157c0,-5.52285 4.47715,-10 10,-10c5.52285,0 10,4.47715 10,10c0,5.52285 -4.47715,10 -10,10c-5.52285,0 -10,-4.47715 -10,-10z" fill="#000000" stroke="none" stroke-width="0.5" stroke-linecap="butt"/><path d="M304.49962,229.95615c0.04385,2.49962 -2.45576,2.54347 -2.45576,2.54347l-2.81162,-1.73185c-1.78678,-1.78678 -4.10613,-2.10613 -6,-4c-1.55293,-2.1753 -5.85203,-3.42264 -8,-5c-0.46497,-0.34145 -0.52561,-1.1035 -1.0228,-1.39606c-1.11252,-0.65464 -2.48569,-0.74383 -3.64005,-1.32151c-4.39874,-2.20129 -8.52213,-5.80828 -13.56938,-6.5502c-2.37967,-0.3498 -5.09106,0 -7.5,0c-8.83333,0 -17.66667,0 -26.5,0c-3.47027,0 -7.81584,-0.69922 -11.20943,-0.12829c-1.89931,0.31953 -3.56578,1.1187 -5.52978,1.33692c-8.57966,0.9533 -17.31187,0.62272 -25.86759,1.76224c-2.79929,0.37283 -4.99698,1.35579 -7.63196,2.14633c-5.52679,1.65815 -11.36995,2.61095 -16.97609,4.01079c-4.19422,1.04729 -8.47474,2.40201 -12.78514,2.872c-0.87706,0.09563 -1.76247,-0.65343 -2.61325,-0.41987c-1.6104,0.44208 -2.79793,1.90561 -4.38675,2.41987c-0.80758,0.26139 -4.29235,0.23213 -5,0c-0.2433,-0.07981 0.01799,-0.78661 -0.23223,-0.73223c-0.89145,0.19371 -1.3057,1.27485 -1.93637,1.93399c-2.09613,2.19075 -3.98594,4.49337 -5.87923,6.85998c0,0 -1.56174,1.95217 -3.51391,0.39043c-1.95217,-1.56174 -0.39043,-3.51391 -0.39043,-3.51391c1.96908,-2.46135 3.93961,-4.86126 6.12077,-7.14002c0.67305,-0.70317 1.14878,-1.73362 2.06363,-2.06601c2.87668,-1.04516 6.12827,0.21693 8.76777,-0.73223c0.70832,-0.25471 0.89042,-1.3701 1.61325,-1.58013c1.7295,-0.50252 3.59682,-0.22026 5.38675,-0.41987c3.87084,-0.43167 7.80175,-1.78118 11.57384,-2.72306c5.64802,-1.4103 11.50719,-2.39295 17.08405,-4.03648c2.59917,-0.76599 4.98555,-1.80367 7.75472,-2.17249c8.70754,-1.15974 17.57047,-0.85925 26.29602,-1.82876c1.7397,-0.1933 2.84479,-0.83643 4.5008,-1.11092c4.07932,-0.67615 8.67504,-0.12829 12.79057,-0.12829c8.83333,0 17.66667,0 26.5,0c2.4171,0 5.10955,-0.33452 7.5,0c7.77077,1.08745 15.63325,6.33039 21.76777,10.73223c2.60921,1.87225 5.59752,2.83562 8,5c0.7848,0.7848 2.07323,0.8215 3.0228,1.39606c1.12011,0.67774 2.05655,1.68329 2.9772,2.60394l-0.81162,0.26815c0,0 2.49962,-0.04385 2.54347,2.45576z" fill="#000000" stroke="none" stroke-width="0.5" stroke-linecap="butt"/><path d="M147,351.5c0,9.66499 -9.40202,17.5 -21,17.5c-11.59798,0 -21,-7.83501 -21,-17.5c0,-9.66499 9.40202,-17.5 21,-17.5c11.59798,0 21,7.83501 21,17.5z" fill="#ff0000" stroke="none" stroke-width="0" stroke-linecap="butt"/><path d="M355,353c0,9.94113 -8.05887,18 -18,18c-9.94112,0 -18,-8.05887 -18,-18c0,-9.94112 8.05888,-18 18,-18c9.94113,0 18,8.05888 18,18z" fill="#ff0000" stroke="none" stroke-width="0" stroke-linecap="butt"/></g></g></svg>