<svg version="1.1" xmlns="http://www.w3.org/2000/svg" xmlns:xlink="http://www.w3.org/1999/xlink" width="299" height="325"><g transform="translate(-89,-46)"><g data-paper-data="{&quot;isPaintingLayer&quot;:true}" fill="none" fill-rule="nonzero" stroke="none" stroke-width="none" stroke-linecap="none" stroke-linejoin="miter" stroke-miterlimit="10" stroke-dasharray="" stroke-dashoffset="0" font-family="none" font-weight="none" font-size="none" text-anchor="none" style="mix-blend-mode: normal"><path d="M89,341v-295h299v295z" data-paper-data="{&quot;origPos&quot;:null}" fill="#ff0000" stroke="none" stroke-width="0" stroke-linecap="butt"/><path d="M327,95l-109,59l-98,-68l7,5" fill="none" stroke="#000000" stroke-width="5" stroke-linecap="round"/><path d="M276,155c0,-5.52285 4.47715,-10 10,-10c5.52285,0 10,4.47715 10,10c0,5.52285 -4.47715,10 -10,10c-5.52285,0 -10,-4.47715 -10,-10z" fill="#000000" stroke="none" stroke-width="0.5" stroke-linecap="butt"/><path d="M144,157c0,-5.52285 4.47715,-10 10,-10c5.52285,0 10,4.47715 10,10c0,5.52285 -4.47715,10 -10,10c-5.52285,0 -10,-4.47715 -10,-10z" fill="#000000" stroke="none" stroke-width="0.5" stroke-linecap="butt"/><path d="M291.49488,215.15993c-0.15993,2.49488 -1.10813,1.9202 -1.10813,1.9202l-1.5,1c-3.57654,2.38436 -7.64958,4.19816 -11.11898,6.68764c-1.26046,0.90445 -2.33028,2.14877 -3.76777,2.73223c-0.58695,0.23824 -1.27674,-0.45096 -1.88197,-0.26393c-1.78231,0.55076 -3.29806,1.85448 -5.11803,2.26393c-1.3874,0.31213 -2.9896,-0.20379 -4.39366,-0.07464c-3.80233,0.34974 -7.18942,2.07464 -11.10634,2.07464c-15.52255,0 -31.05324,0.24798 -46.33078,-1.15791c-3.91441,-0.36022 -7.88336,-0.56139 -11.77774,-1.09356c-3.13038,-0.42777 -6.25113,-1.46536 -9.39149,-1.74853c-4.21961,-0.38048 -8.5821,0.48798 -12.79057,-0.12829c-4.20318,-0.61549 -8.67441,-2.41101 -12.81577,-3.44635c-1.32102,-0.33485 -3.06884,-1.20247 -4.39366,-1.42536c-2.69494,-0.45339 -4.80195,-0.13215 -7.38675,-1.41987c-6.6934,-3.33459 -10.30633,-9.23768 -15.38102,-14.31236c0,0 -1.76777,-1.76777 0,-3.53553c1.76777,-1.76777 3.53553,0 3.53553,0c4.87516,4.87516 8.22734,10.47452 14.61898,13.68764c1.61894,0.81385 2.97494,0.30857 4.61325,0.58013c1.87642,0.31102 3.75384,1.11926 5.60634,1.57464c4.23443,1.05861 8.88337,2.96361 13.18423,3.55365c3.59068,0.49261 7.56687,-0.45674 11.20943,-0.12829c7.21476,0.65055 14.37375,2.19562 21.6274,2.86313c2.10381,0.1936 4.29473,-0.13564 6.3726,0.13687c1.30712,0.17143 2.49053,0.90958 3.79057,1.12829c3.71945,0.62575 8.39244,-0.12829 12.20943,-0.12829c7.83333,0 15.66667,0 23.5,0c3.49773,0 6.47572,-1.58341 9.89366,-1.92536c1.85966,-0.18605 3.78015,0.32282 5.60634,-0.07464c1.09584,-0.2385 1.80026,-1.44001 2.88197,-1.73607c1.3267,-0.36311 2.82621,0.20847 4.11803,-0.26393c0.25455,-0.09309 -0.8166,-0.00116 -0.76777,-0.26777c0.27014,-1.47471 2.35004,-1.8738 3.62526,-2.6622c3.09376,-1.91273 6.22303,-3.62833 9.25576,-5.65015l1.5,-1c0,0 4.04156,-0.25483 3.88163,2.24005z" fill="#000000" stroke="none" stroke-width="0.5" stroke-linecap="butt"/><path d="M147,351.5c0,9.66499 -9.40202,17.5 -21,17.5c-11.59798,0 -21,-7.83501 -21,-17.5c0,-9.66499 9.40202,-17.5 21,-17.5c11.59798,0 21,7.83501 21,17.5z" fill="#ff0000" stroke="none" stroke-width="0" stroke-linecap="butt"/><path d="M355,353c0,9.94113 -8.05887,18 -18,18c-9.94112,0 -18,-8.05887 -18,-18c0,-9.94112 8.05888,-18 18,-18c9.94113,0 18,8.05888 18,18z" fill="#ff0000" stroke="none" stroke-width="0" stroke-linecap="butt"/></g></g></svg>