<svg version="1.1" xmlns="http://www.w3.org/2000/svg" xmlns:xlink="http://www.w3.org/1999/xlink" width="299" height="325"><g transform="translate(-89,-46)"><g data-paper-data="{&quot;isPaintingLayer&quot;:true}" fill="none" fill-rule="nonzero" stroke="none" stroke-width="none" stroke-linecap="none" stroke-linejoin="miter" stroke-miterlimit="10" stroke-dasharray="" stroke-dashoffset="0" font-family="none" font-weight="none" font-size="none" text-anchor="none" style="mix-blend-mode: normal"><path d="M89,341v-295h299v295z" data-paper-data="{&quot;origPos&quot;:null}" fill="#ff0000" stroke="none" stroke-width="0" stroke-linecap="butt"/><path d="M327,95l-109,59l-98,-68l7,5" fill="none" stroke="#000000" stroke-width="5" stroke-linecap="round"/><path d="M276,155c0,-5.52285 4.47715,-10 10,-10c5.52285,0 10,4.47715 10,10c0,5.52285 -4.47715,10 -10,10c-5.52285,0 -10,-4.47715 -10,-10z" fill="#000000" stroke="none" stroke-width="0.5" stroke-linecap="butt"/><path d="M144,157c0,-5.52285 4.47715,-10 10,-10c5.52285,0 10,4.47715 10,10c0,5.52285 -4.47715,10 -10,10c-5.52285,0 -10,-4.47715 -10,-10z" fill="#000000" stroke="none" stroke-width="0.5" stroke-linecap="butt"/><path d="M309.49606,208.30798c-0.10352,1.72185 -1.49092,2.10117 -2.2102,2.18178l1.79426,-0.08254c-1.18602,1.66239 -2.29599,3.14405 -3.81236,4.561c-3.03187,2.77614 -7.56714,4.51212 -10.18764,7.58667c-3.22027,3.77824 -4.47569,8.02433 -7,12.14767c-2.00131,3.26904 -4.48079,6.12004 -7.31236,8.76596c-3.26752,3.05329 -5.48014,6.58919 -8.26777,10.02859c-0.91373,1.12736 -2.36077,1.85598 -3.12829,3.07483c-2.33198,3.70324 -3.21274,8.38073 -5.60394,12.12636c-1.6703,2.61639 -5.77137,3.60686 -8.26777,5.35641c-3.27514,2.25051 -7.25754,4.6046 -11.00558,6.10206c-5.63444,2.25113 -14.93776,2.02211 -21.10076,1.30368c-4.5442,-0.52972 -7.86826,-3.23975 -12,-4.20496c-4.55561,-1.29408 -9.50004,-3.82768 -13.16143,-6.68831c-1.30798,-1.02192 -2.29387,-2.45968 -3.61898,-3.44586c-5.53292,-4.11772 -10.44138,-8.71476 -16.11325,-12.68976c-4.67154,-3.3344 -9.795,-6.44313 -14.26777,-10.02859c-3.47923,-2.78901 -6.11757,-6.11985 -9,-9.34436c-2.12903,-2.38171 -5.01339,-3.92981 -6.10394,-6.98696c-1.85682,-5.5836 -7.03604,-9.18241 -10.69955,-13.75197c-3.72737,-4.64922 -6.77104,-9.69988 -11.19651,-13.8352c0,0 -1.76777,-1.65187 0,-3.30373c1.76777,-1.65187 3.53553,0 3.53553,0c4.71448,4.40538 7.97849,9.78331 11.94844,14.73511c4.00918,5.00073 8.89423,8.60341 11.1555,14.67831c0.76572,2.14655 3.25421,3.31629 4.89606,5.16071c2.89534,3.25256 5.49534,6.54007 9,9.34436c2.97692,2.38201 6.58023,3.97012 9.61898,6.24917c1.45946,1.09459 2.58644,2.30124 4.11325,3.3454c4.82887,3.3842 8.66405,7.36965 13.26777,10.96302c1.30906,1.02177 2.74318,1.66275 4,2.80331c2.11913,1.92309 4.14761,3.98037 6.73223,5.38961c0.68383,0.37285 1.58192,0.2572 2.29057,0.5871c1.77946,0.82839 2.83535,2.05112 4.81577,2.28596c4.27164,0.99789 7.41459,3.66792 12,4.20496c4.1396,0.48483 10.30419,0.46545 14.39366,-0.06975c4.55518,-0.59615 9.92133,-3.96613 13.5,-6.54105c2.26443,-1.58697 6.3104,-2.52431 7.73223,-4.92239c1.83831,-3.10052 2.41937,-7.24741 4.39606,-10.3001c1.43106,-2.21006 3.74984,-4.14847 5.37171,-6.26953c2.35278,-3.07695 4.35477,-5.97133 7.23223,-8.66014c2.61611,-2.44459 4.83859,-5.02629 6.68764,-8.05389c2.48853,-4.07468 3.77924,-8.39795 7,-12.14767c2.94974,-3.43419 7.54483,-5.1574 10.81236,-8.29874c1.3605,-1.2713 2.13087,-2.3677 3.18764,-3.84893l2.22035,-1.97102c0,0 2.49606,0.13103 2.35584,2.46345z" data-paper-data="{&quot;origPos&quot;:null}" fill="#000000" stroke="none" stroke-width="0.5" stroke-linecap="butt"/><path d="M147,351.5c0,9.66499 -9.40202,17.5 -21,17.5c-11.59798,0 -21,-7.83501 -21,-17.5c0,-9.66499 9.40202,-17.5 21,-17.5c11.59798,0 21,7.83501 21,17.5z" fill="#ff0000" stroke="none" stroke-width="0" stroke-linecap="butt"/><path d="M355,353c0,9.94113 -8.05887,18 -18,18c-9.94112,0 -18,-8.05887 -18,-18c0,-9.94112 8.05888,-18 18,-18c9.94113,0 18,8.05888 18,18z" fill="#ff0000" stroke="none" stroke-width="0" stroke-linecap="butt"/></g></g></svg>