<svg version="1.1" xmlns="http://www.w3.org/2000/svg" xmlns:xlink="http://www.w3.org/1999/xlink" width="299" height="325"><g transform="translate(-89,-46)"><g data-paper-data="{&quot;isPaintingLayer&quot;:true}" fill="none" fill-rule="nonzero" stroke="none" stroke-width="none" stroke-linecap="none" stroke-linejoin="miter" stroke-miterlimit="10" stroke-dasharray="" stroke-dashoffset="0" font-family="none" font-weight="none" font-size="none" text-anchor="none" style="mix-blend-mode: normal"><path d="M89,341v-295h299v295z" data-paper-data="{&quot;origPos&quot;:null}" fill="#ff0000" stroke="none" stroke-width="0" stroke-linecap="butt"/><path d="M327,95l-109,59l-98,-68l7,5" fill="none" stroke="#000000" stroke-width="5" stroke-linecap="round"/><path d="M276,155c0,-5.52285 4.47715,-10 10,-10c5.52285,0 10,4.47715 10,10c0,5.52285 -4.47715,10 -10,10c-5.52285,0 -10,-4.47715 -10,-10z" fill="#000000" stroke="none" stroke-width="0.5" stroke-linecap="butt"/><path d="M144,157c0,-5.52285 4.47715,-10 10,-10c5.52285,0 10,4.47715 10,10c0,5.52285 -4.47715,10 -10,10c-5.52285,0 -10,-4.47715 -10,-10z" fill="#000000" stroke="none" stroke-width="0.5" stroke-linecap="butt"/><path d="M279.49947,207.05136c-0.05136,2.49947 -2.55083,2.44811 -2.55083,2.44811l2.2295,0.78662c-1.16108,2.9027 -2.57754,5.64694 -3.80644,8.50448c-2.46064,5.72172 -3.43687,11.96521 -6.29158,17.59618c-0.38734,0.76403 -1.26332,1.21942 -1.61061,2.00247c-0.49831,1.12356 -0.28196,2.47442 -0.7533,3.60956c-0.82951,1.9977 -2.29239,3.68812 -3.14572,5.70684c-1.31175,2.61546 -2.75412,4.01355 -4.80272,6.06215c-0.33333,0.33333 -0.53631,0.91506 -1,1c-0.2666,0.04884 -0.17468,-1.02232 -0.26777,-0.76777c-0.55222,1.51009 -0.05046,3.31158 -0.73223,4.76777c-0.64964,1.38754 -2.10493,2.23468 -3.26777,3.23223c-3.13402,2.68857 -6.68228,5.03963 -10,7.5c-2.00295,1.48536 -3.73656,3.69554 -5.89366,4.92536c-2.10953,1.20269 -6.79242,2.08256 -9.14857,2.05997c-12.25592,-0.12089 -23.69761,-2.42406 -35.50492,-5.53248c-4.81666,-1.26804 -8.89136,-4.45285 -13.95285,-4.45285c-3.82883,-0.47468 -6.9806,-2.04693 -9.23607,-5.38197c-0.6879,-1.01716 -0.86125,-2.32152 -1.5317,-3.35027c-1.20778,-1.85324 -3.221,-3.37681 -4.53886,-5.22076c-2.4859,-3.4783 -4.17963,-7.43152 -6.59152,-10.92002c-2.14166,-3.09765 -5.08124,-5.58912 -7.18198,-8.74023c-0.68366,-1.02549 -1.48063,-2.98063 -2.30662,-3.80662c-2.32786,-2.32786 -5.0549,-3.34163 -6.98496,-6.28956c-1.18179,-1.80504 -1.43787,-4.38814 -2.62829,-6.29057c-2.48668,-3.97401 -5.47599,-7.44045 -8.76777,-10.73223c0,0 -1.76777,-1.76777 0,-3.53553c1.76777,-1.76777 3.53553,0 3.53553,0c3.4425,3.4425 6.63966,7.11561 9.23223,11.26777c1.44582,2.31557 1.88643,5.55736 3.37171,7.70943c1.11079,1.60947 3.64466,2.34006 5.01504,3.71044c1.45268,1.45268 2.55468,3.48534 3.69338,5.19338c1.9878,2.9817 4.78423,5.32866 6.81802,8.25977c2.53869,3.65878 4.35625,7.75931 6.95549,11.40048c1.13947,1.59623 2.841,2.87195 3.91414,4.45873c1.8866,2.7896 2.27996,4.85821 5.11898,6.68764c0.61403,0.39568 1.51051,0.9928 2.11325,0.58013c5.75105,0 10.13743,3.28872 15.53399,4.70943c11.31242,2.97813 22.23383,5.16696 33.97173,5.27612c2.12825,0.02041 6.08635,-0.87674 7.88794,-1.91091c0.86085,-0.49415 1.08521,-1.69612 1.83857,-2.34241c2.60175,-2.23195 5.52535,-4.17542 8.26777,-6.23223c2.16007,-1.62005 5.25819,-3.40199 6.73223,-5.76777c0.13743,-0.22057 -0.59947,0.49118 -0.73223,0.26777c-0.25542,-0.42984 -0.18804,-1.03671 0,-1.5c1.29666,-3.19462 5.8022,-5.09005 6.46505,-8.24115c1.80685,-4.27444 3.90402,-8.05845 5.95483,-12.1456c2.62084,-5.22319 3.43826,-11.09156 5.70842,-16.40382c1.26333,-2.95625 2.70968,-5.78582 3.90747,-8.78029l2.5156,-3.92861c0,0 2.49947,0.05136 2.44811,2.55083z" fill="#000000" stroke="none" stroke-width="0.5" stroke-linecap="butt"/><path d="M147,351.5c0,9.66498 -9.40202,17.5 -21,17.5c-11.59798,0 -21,-7.83502 -21,-17.5c0,-9.66498 9.40202,-17.5 21,-17.5c11.59798,0 21,7.83502 21,17.5z" fill="#ff0000" stroke="none" stroke-width="0" stroke-linecap="butt"/><path d="M355,353c0,9.94113 -8.05887,18 -18,18c-9.94113,0 -18,-8.05887 -18,-18c0,-9.94113 8.05887,-18 18,-18c9.94113,0 18,8.05887 18,18z" fill="#ff0000" stroke="none" stroke-width="0" stroke-linecap="butt"/></g></g></svg>