<svg version="1.1" xmlns="http://www.w3.org/2000/svg" xmlns:xlink="http://www.w3.org/1999/xlink" width="299" height="325"><g transform="translate(-89,-46)"><g data-paper-data="{&quot;isPaintingLayer&quot;:true}" fill="none" fill-rule="nonzero" stroke="none" stroke-width="none" stroke-linecap="none" stroke-linejoin="miter" stroke-miterlimit="10" stroke-dasharray="" stroke-dashoffset="0" font-family="none" font-weight="none" font-size="none" text-anchor="none" style="mix-blend-mode: normal"><path d="M89,341v-295h299v295z" data-paper-data="{&quot;origPos&quot;:null}" fill="#ff0000" stroke="none" stroke-width="0" stroke-linecap="butt"/><path d="M327,95l-109,59l-98,-68l7,5" fill="none" stroke="#000000" stroke-width="5" stroke-linecap="round"/><path d="M276,155c0,-5.52285 4.47715,-10 10,-10c5.52285,0 10,4.47715 10,10c0,5.52285 -4.47715,10 -10,10c-5.52285,0 -10,-4.47715 -10,-10z" fill="#000000" stroke="none" stroke-width="0.5" stroke-linecap="butt"/><path d="M144,157c0,-5.52285 4.47715,-10 10,-10c5.52285,0 10,4.47715 10,10c0,5.52285 -4.47715,10 -10,10c-5.52285,0 -10,-4.47715 -10,-10z" fill="#000000" stroke="none" stroke-width="0.5" stroke-linecap="butt"/><path d="M303.5,235c0,2.5 -4.26777,1.76777 -4.26777,1.76777l-1,-1c-1.48023,-1.48023 -3.25281,-2.95045 -4.4683,-4.64973c-1.12633,-1.57463 -1.16411,-2.98267 -2.5317,-4.35027c-0.34257,-0.34257 -1.81996,-2.2767 -2.0228,-2.39606c-1.43188,-0.84255 -3.24183,-1.10853 -4.4455,-2.25367c-1.5132,-1.43963 -0.53424,-1.95094 -1.5317,-3.35027c-1.43227,-2.00933 -3.73019,-3.46411 -5.31015,-5.37772c-0.28136,-0.34077 -0.61185,-0.67813 -0.73714,-1.10191c-0.03817,-0.12912 0.46872,-0.1251 0.35369,-0.19508c-3.06586,-1.86518 -6.22934,-1.81657 -9.55398,-2.80853c-3.46662,-1.03432 -6.36093,-3.78453 -9.98465,-3.78453c-16.16667,0 -32.33333,0 -48.5,0c-5,0 -10,0 -15,0c-1.33333,0 -2.82186,0.62431 -4,0c-0.21032,-0.11145 0.43424,-0.77354 0.21496,-0.68095c-1.16977,0.49392 -1.78117,1.83701 -2.83773,2.54127c-5.73804,3.82476 -12.11963,6.41762 -17.10946,11.40745c-1.66006,1.34668 -2.65399,1.19627 -4.07966,2.07622c-3.98353,2.45873 -7.43938,5.97694 -11.57008,8.39208c-2.47949,1.44972 -5.23822,2.42129 -7.73128,3.84406c-4.31272,2.46122 -7.24819,4.41987 -12.38675,4.41987c0,0 -2.5,0 -2.5,-2.5c0,-2.5 2.5,-2.5 2.5,-2.5c1.33333,0 2.70814,0.32995 4,0c1.82613,-0.4664 3.91983,-2.61138 5.61325,-3.58013c5.52668,-3.16161 11.20425,-5.6471 16.3205,-9.547c1.82536,-1.39139 2.47237,-2.34175 4.77568,-3.24458c0.54834,-0.21493 1.48895,-0.30807 1.5228,-0.89606c4.52926,-4.52926 10.46985,-8.2476 16.13286,-11.17201c0.87103,-0.4498 2.9866,-2.5037 3.91995,-2.87927c2.29931,-0.92521 4.8143,-0.68095 7.21496,-0.68095c5,0 10,0 15,0c16.16667,0 32.33333,0 48.5,0c4.5075,0 7.84893,2.97468 12.01535,4.21547c3.14352,0.93617 6.65449,0.719 9.49747,2.78383c1.08741,0.78978 1.70822,2.07529 2.5651,3.11065c1.37658,1.6633 3.42904,2.85966 4.68985,4.62228c1.02089,1.42722 1.33488,3.31013 2.4683,4.64973c0.16269,0.19229 -0.19409,-0.71311 0.0545,-0.75367c0.52017,-0.08488 1.04907,0.22716 1.5,0.5c1.50023,0.90774 2.74377,2.37051 3.9772,3.60394c1.65834,1.65834 2.15061,3.80115 3.4683,5.64973c0.86141,1.20847 2.45631,2.27488 3.5317,3.35027l1,1c0,0 0.73223,-0.73223 0.73223,1.76777z" fill="#000000" stroke="none" stroke-width="0.5" stroke-linecap="butt"/><path d="M147,351.5c0,9.66499 -9.40202,17.5 -21,17.5c-11.59798,0 -21,-7.83501 -21,-17.5c0,-9.66499 9.40202,-17.5 21,-17.5c11.59798,0 21,7.83501 21,17.5z" fill="#ff0000" stroke="none" stroke-width="0" stroke-linecap="butt"/><path d="M355,353c0,9.94113 -8.05887,18 -18,18c-9.94112,0 -18,-8.05887 -18,-18c0,-9.94112 8.05888,-18 18,-18c9.94113,0 18,8.05888 18,18z" fill="#ff0000" stroke="none" stroke-width="0" stroke-linecap="butt"/></g></g></svg>