<svg version="1.1" xmlns="http://www.w3.org/2000/svg" xmlns:xlink="http://www.w3.org/1999/xlink" width="299" height="325"><g transform="translate(-89,-46)"><g data-paper-data="{&quot;isPaintingLayer&quot;:true}" fill="none" fill-rule="nonzero" stroke="none" stroke-width="none" stroke-linecap="none" stroke-linejoin="miter" stroke-miterlimit="10" stroke-dasharray="" stroke-dashoffset="0" font-family="none" font-weight="none" font-size="none" text-anchor="none" style="mix-blend-mode: normal"><path d="M89,341v-295h299v295z" data-paper-data="{&quot;origPos&quot;:null}" fill="#ff0000" stroke="none" stroke-width="0" stroke-linecap="butt"/><path d="M327,95l-109,59l-98,-68l7,5" fill="none" stroke="#000000" stroke-width="5" stroke-linecap="round"/><path d="M276,155c0,-5.52285 4.47715,-10 10,-10c5.52285,0 10,4.47715 10,10c0,5.52285 -4.47715,10 -10,10c-5.52285,0 -10,-4.47715 -10,-10z" fill="#000000" stroke="none" stroke-width="0.5" stroke-linecap="butt"/><path d="M144,157c0,-5.52285 4.47715,-10 10,-10c5.52285,0 10,4.47715 10,10c0,5.52285 -4.47715,10 -10,10c-5.52285,0 -10,-4.47715 -10,-10z" fill="#000000" stroke="none" stroke-width="0.5" stroke-linecap="butt"/><path d="M291.49995,252.01656c-0.01656,2.49995 -4.55015,1.41406 -4.55015,1.41406l-0.88197,-1.26393c-1.93775,-2.86083 -2.96255,-5.92962 -4.3039,-9.04865c-1.06799,-2.48339 -2.26393,-4.34107 -2.26393,-7.11803c0.41268,-0.60274 -0.18757,-1.49722 -0.58013,-2.11325c-1.27425,-1.99969 -1.74359,-4.05022 -3,-6c-0.87894,-1.36399 -1.98566,-2.23622 -3,-3.5c-0.54391,-0.67767 -0.63563,-1.68017 -1.26491,-2.27941c-2.56656,-2.44404 -6.51744,-3.18735 -9.5581,-4.83657c-4.11364,-2.2312 -7.97934,-4.89885 -12.1516,-7.0186c-2.21979,-1.12779 -4.58533,-2.14733 -6.71012,-3.44267c-2.39218,-1.45834 -4.43061,-3.58268 -7.23513,-4.30949c-1.26416,-0.32762 -3.18868,0 -4.5,0c-4,0 -8,0 -12,0c-3.57041,0 -9.81072,-1.28823 -12.61325,0.58013c-8.74389,5.65159 -19.87648,9.55454 -29.83649,12.4766c-6.63738,1.94727 -12.98265,2.39075 -18.53635,6.83371c-2.07473,1.63651 -3.94381,3.31775 -5.43378,5.49632c-0.69516,1.01642 -1.10111,2.65914 -2.31236,2.88102c-0.2666,0.04884 -0.17468,-1.02232 -0.26777,-0.76777c-0.50449,1.37958 0.03248,2.9892 -0.41987,4.38675c-0.30428,0.9401 -1.27539,1.53325 -1.71351,2.41893c-0.89395,1.80716 -1.30082,3.94557 -2.11695,5.80161c-1.59094,3.61812 -4.23493,5.95341 -6.0136,9.51075c0,0 -1.11803,2.23607 -3.3541,1.11803c-2.23607,-1.11803 -1.11803,-3.3541 -1.11803,-3.3541c0.66667,-1.33333 1.13273,-2.78754 2,-4c0.9764,-1.36502 2.57492,-2.22899 3.4683,-3.64973c1.23513,-1.96422 1.35162,-4.91408 2.40115,-7.03791c0.62744,-1.26969 1.80725,-2.24836 2.28649,-3.58107c0.18803,-0.52288 -0.62885,-1.09838 -0.41987,-1.61325c1.76374,-4.34538 6.35713,-8.65521 9.89043,-11.51391c6.19122,-4.95298 13.13813,-5.63248 20.51213,-7.79586c7.01285,-2.05742 13.86698,-4.91628 20.49522,-7.9551c2.5864,-1.18578 5.37984,-2.18238 7.71546,-3.81526c3.49087,-2.32724 8.8004,-1.41987 12.88675,-1.41987c4.33333,0 8.66667,0 13,0c1.82174,0 4.23264,-0.41202 6,0c5.87269,1.36909 10.87478,5.58387 16.21002,8.29449c4.77917,2.4281 9.10684,5.76769 13.98059,8.00723c2.68635,1.23441 5.95055,1.96569 8.15443,4.09095c1.10799,1.06847 1.77615,2.51655 2.73509,3.72059c3.40175,4.2712 6.73718,8.88009 7.41987,14.38675c0,2.59966 0.71235,2.48643 1.73607,4.88197c1.23834,2.89777 2.03053,5.82456 3.93217,8.42348l0.88197,1.26393c0,0 0.4663,-1.05277 0.44974,1.44718z" fill="#000000" stroke="none" stroke-width="0.5" stroke-linecap="butt"/><path d="M147,351.5c0,9.66499 -9.40202,17.5 -21,17.5c-11.59798,0 -21,-7.83501 -21,-17.5c0,-9.66499 9.40202,-17.5 21,-17.5c11.59798,0 21,7.83501 21,17.5z" fill="#ff0000" stroke="none" stroke-width="0" stroke-linecap="butt"/><path d="M355,353c0,9.94113 -8.05887,18 -18,18c-9.94112,0 -18,-8.05887 -18,-18c0,-9.94112 8.05888,-18 18,-18c9.94113,0 18,8.05888 18,18z" fill="#ff0000" stroke="none" stroke-width="0" stroke-linecap="butt"/></g></g></svg>